<svg width="28" height="35" viewBox="0 0 28 35" fill="none" xmlns="http://www.w3.org/2000/svg">
<path id="Subtract" fill-rule="evenodd" clip-rule="evenodd" d="M10.8566 1.72308L9.84782 4.71155L6.37592 6.97308L3.6078 6.48845C3.14689 6.41665 2.67777 6.50375 2.26005 6.73865C1.84236 6.97355 1.49492 7.34565 1.26193 7.8077L0.323584 9.6923C0.0831358 10.1617 -0.0276464 10.7038 0.00585811 11.2469C0.0393627 11.7901 0.215581 12.3088 0.511254 12.7346L2.27066 15.2384V19.7616L0.55817 22.2654C0.262498 22.6912 0.0862813 23.2099 0.0527768 23.7531C0.01927 24.2962 0.130052 24.8383 0.3705 25.3078L1.30885 27.1922C1.54184 27.6542 1.88928 28.0265 2.30698 28.2612C2.72467 28.4962 3.19379 28.5833 3.65472 28.5115L6.42284 28.027L9.84782 30.2885L10.8566 33.277C11.0267 33.783 11.326 34.2183 11.7152 34.5255C12.1045 34.833 12.5657 34.9985 13.0382 35H15.0087C15.4813 34.9985 15.9424 34.833 16.3317 34.5255C16.721 34.2183 17.0203 33.783 17.1904 33.277L18.1991 30.2885L21.6241 28.027L24.3923 28.5115C24.8532 28.5833 25.3222 28.4962 25.74 28.2612C26.1576 28.0265 26.505 27.6542 26.7381 27.1922L27.6765 25.3078C27.9168 24.8383 28.0277 24.2962 27.9941 23.7531C27.9606 23.2099 27.7844 22.6912 27.4888 22.2654L25.7293 19.7616V15.2384L27.4419 12.7346C27.7375 12.3088 27.9137 11.7901 27.9473 11.2469C27.9808 10.7038 27.87 10.1617 27.6295 9.6923L26.6911 7.8077C26.4582 7.34565 26.1108 6.97355 25.693 6.73865C25.2754 6.50375 24.8062 6.41665 24.3452 6.48845L21.5773 6.97308L18.1522 4.71155L17.1435 1.72308C16.9734 1.21709 16.674 0.781875 16.2848 0.474418C15.8955 0.166961 15.4344 0.00160208 14.9618 0H13.0382C12.5657 0.00160208 12.1045 0.166961 11.7152 0.474418C11.326 0.781875 11.0267 1.21709 10.8566 1.72308ZM14 23.125C16.7069 23.125 18.9012 20.6066 18.9012 17.5C18.9012 14.3934 16.7069 11.875 14 11.875C11.2932 11.875 9.09883 14.3934 9.09883 17.5C9.09883 20.6066 11.2932 23.125 14 23.125Z" fill="#76869A"/>
</svg>
